<svg width="23" height="22" viewBox="0 0 23 22" fill="none" xmlns="http://www.w3.org/2000/svg">
<path d="M5.60456 16.1562C5.64779 16.1562 5.69101 16.152 5.73423 16.1455L9.36941 15.5117C9.41264 15.5031 9.4537 15.4838 9.48396 15.4516L18.6454 6.34434C18.6654 6.32446 18.6813 6.30085 18.6922 6.27486C18.703 6.24887 18.7086 6.22101 18.7086 6.19287C18.7086 6.16473 18.703 6.13687 18.6922 6.11088C18.6813 6.08489 18.6654 6.06128 18.6454 6.04141L15.0534 2.46855C15.0124 2.42773 14.9583 2.40625 14.9 2.40625C14.8416 2.40625 14.7876 2.42773 14.7465 2.46855L5.58511 11.5758C5.55269 11.608 5.53324 11.6467 5.5246 11.6896L4.88703 15.3033C4.86601 15.4184 4.87352 15.5369 4.90892 15.6484C4.94432 15.76 5.00654 15.8613 5.09019 15.9436C5.23283 16.0811 5.41221 16.1562 5.60456 16.1562ZM7.06123 12.4094L14.9 4.61914L16.4842 6.19394L8.6454 13.9842L6.72407 14.3215L7.06123 12.4094ZM19.0539 17.9609H3.14725C2.76471 17.9609 2.45566 18.2682 2.45566 18.6484V19.4219C2.45566 19.5164 2.53346 19.5938 2.62856 19.5938H19.5725C19.6676 19.5938 19.7454 19.5164 19.7454 19.4219V18.6484C19.7454 18.2682 19.4364 17.9609 19.0539 17.9609Z" fill="#00B295"/>
</svg>
