<svg width="30" height="30" viewBox="0 0 30 30"  xmlns="http://www.w3.org/2000/svg">
<path d="M20.9363 2.5C21.6822 2.5 22.3975 2.79632 22.925 3.32376C23.4524 3.85121 23.7488 4.56658 23.7488 5.3125V24.6875C23.7488 25.4334 23.4524 26.1488 22.925 26.6762C22.3975 27.2037 21.6822 27.5 20.9363 27.5H7.8125C7.06658 27.5 6.35121 27.2037 5.82376 26.6762C5.29632 26.1488 5 25.4334 5 24.6875V5.3125C5 4.56658 5.29632 3.85121 5.82376 3.32376C6.35121 2.79632 7.06658 2.5 7.8125 2.5H20.9363ZM25 18.7525H25.9375C26.164 18.7525 26.3829 18.8346 26.5537 18.9835C26.7244 19.1324 26.8354 19.3381 26.8662 19.5625L26.875 19.69V21.5625C26.875 21.789 26.7929 22.0079 26.644 22.1787C26.4951 22.3494 26.2894 22.4604 26.065 22.4912L25.9375 22.5H25V18.7525H25.9375H25ZM25 13.7525H25.9375C26.164 13.7525 26.3829 13.8346 26.5537 13.9835C26.7244 14.1324 26.8354 14.3381 26.8662 14.5625L26.875 14.69V16.5625C26.875 16.789 26.7929 17.0079 26.644 17.1787C26.4951 17.3494 26.2894 17.4604 26.065 17.4913L25.9375 17.5H25V13.7525H25.9375H25ZM25 8.7525H25.9375C26.164 8.75251 26.3829 8.83455 26.5537 8.98346C26.7244 9.13236 26.8354 9.33806 26.8662 9.5625L26.875 9.69V11.5625C26.875 11.789 26.7929 12.0079 26.644 12.1787C26.4951 12.3494 26.2894 12.4604 26.065 12.4913L25.9375 12.5H25V8.7525H25.9375H25ZM18.4425 6.87125H10.3125C10.0858 6.8713 9.86673 6.95352 9.69597 7.10268C9.5252 7.25184 9.41428 7.45783 9.38375 7.6825L9.375 7.80875V9.68875C9.375 10.1637 9.72875 10.555 10.1863 10.6175L10.3125 10.6263H18.4412C18.6678 10.6262 18.8867 10.5442 19.0574 10.3953C19.2281 10.2464 19.3392 10.0407 19.37 9.81625L19.3787 9.68875V7.80875C19.3787 7.56011 19.28 7.32165 19.1042 7.14584C18.9283 6.97002 18.6899 6.87125 18.4412 6.87125H18.4425Z" fill="white"/>
</svg>
